<svg xmlns="http://www.w3.org/2000/svg" viewBox="0 0 100 100" width="100" height="100">
  <defs>
    <radialGradient id="glow" cx="50%" cy="50%" r="50%" fx="50%" fy="50%">
      <stop offset="0%" stop-color="#38bdf8" stop-opacity="0.9" />
      <stop offset="30%" stop-color="#0284c7" stop-opacity="0.6" />
      <stop offset="60%" stop-color="#0f172a" stop-opacity="0.2" />
      <stop offset="100%" stop-color="#0f172a" stop-opacity="0" />
    </radialGradient>
    <radialGradient id="coreLight" cx="50%" cy="50%" r="15%">
      <stop offset="0%" stop-color="#ffffff" stop-opacity="1" />
      <stop offset="100%" stop-color="#e0f2fe" stop-opacity="0" />
    </radialGradient>
  </defs>
  <circle cx="50" cy="50" r="48" fill="url(#glow)" />
  <path
    d="M 50 5 C 50 40, 45 48, 85 50 C 45 52, 50 60, 50 95 C 50 60, 55 52, 15 50 C 55 48, 50 40, 50 5 Z"
    fill="#7dd3fc"
    opacity="0.9"
  />
  <g transform="rotate(45 50 50)">
    <path
      d="M 50 20 C 50 42, 48 48, 80 50 C 48 52, 50 58, 50 80 C 50 58, 52 52, 20 50 C 52 48, 50 42, 50 20 Z"
      fill="#38bdf8"
      opacity="0.6"
    />
  </g>
  <circle cx="50" cy="50" r="6" fill="url(#coreLight)" />
</svg>
